<svg xmlns="http://www.w3.org/2000/svg" version="1.1" xmlns:xlink="http://www.w3.org/1999/xlink" xmlns:svgjs="http://svgjs.dev/svgjs" width="1500" height="1500" viewBox="0 0 1500 1500"><rect width="1500" height="1500" fill="#000000"></rect><g transform="matrix(0.6666666666666666,0,0,0.6666666666666666,249.39393939393932,594.3525187863065)"><svg viewBox="0 0 396 123" data-background-color="#8b3c7f" preserveAspectRatio="xMidYMid meet" height="465" width="1500" xmlns="http://www.w3.org/2000/svg" xmlns:xlink="http://www.w3.org/1999/xlink"><g id="tight-bounds" transform="matrix(1,0,0,1,0.24000000000003752,0.2569038364009373)"><svg viewBox="0 0 395.5199999999999 122.48619232719814" height="122.48619232719814" width="395.5199999999999"><g><svg viewBox="0 0 395.5199999999999 122.48619232719814" height="122.48619232719814" width="395.5199999999999"><g><svg viewBox="0 0 395.5199999999999 122.48619232719814" height="122.48619232719814" width="395.5199999999999"><g transform="matrix(1,0,0,1,0,73.70974969560328)"><svg viewBox="0 0 395.5199999999999 48.77644263159486" height="48.77644263159486" width="395.5199999999999"><g id="textblocktransform"><svg viewBox="0 0 395.5199999999999 48.77644263159486" height="48.77644263159486" width="395.5199999999999" id="textblock"><g><svg viewBox="0 0 395.5199999999999 26.689311826442204" height="26.689311826442204" width="395.5199999999999"><g transform="matrix(1,0,0,1,0,0)"><svg width="395.5199999999999" viewBox="2.66 -37.72 693.14 46.78" height="26.689311826442204" data-palette-color="#ffffff"><path d="M17.87 0.61L17.87 0.61Q13.43 0.61 9.99-1.48 6.54-3.56 4.6-7.48 2.66-11.4 2.66-16.89L2.66-16.89Q2.66-22.34 4.66-26.27 6.67-30.2 10.16-32.34 13.65-34.47 18.14-34.47L18.14-34.47Q21.66-34.47 24-33.15 26.34-31.84 27.81-30.3L27.81-30.3 25.61-27.76Q24.34-29.13 22.56-30.02 20.78-30.91 18.24-30.91L18.24-30.91Q14.77-30.91 12.21-29.21 9.64-27.51 8.24-24.4 6.84-21.29 6.84-16.99L6.84-16.99Q6.84-10.5 9.79-6.71 12.74-2.93 18.24-2.93L18.24-2.93Q20.09-2.93 21.78-3.45 23.46-3.98 24.51-4.98L24.51-4.98 24.51-14.06 17.21-14.06 17.21-17.41 28.22-17.41 28.22-3.3Q26.61-1.59 23.93-0.49 21.24 0.61 17.87 0.61ZM40.38 0L36.37 0 36.37-33.84 55.69-33.84 55.69-30.44 40.38-30.44 40.38-18.7 53.37-18.7 53.37-15.28 40.38-15.28 40.38 0ZM70.99 0.61L70.99 0.61Q67.35 0.61 64.37-0.74 61.4-2.1 59.22-4.42L59.22-4.42 61.49-7.1Q63.3-5.13 65.82-4.03 68.33-2.93 71.04-2.93L71.04-2.93Q74.48-2.93 76.41-4.49 78.34-6.05 78.34-8.59L78.34-8.59Q78.34-10.4 77.58-11.49 76.83-12.57 75.53-13.29 74.24-14.01 72.63-14.72L72.63-14.72 67.74-16.89Q66.18-17.58 64.59-18.65 63.01-19.73 61.95-21.41 60.88-23.1 60.88-25.56L60.88-25.56Q60.88-28.15 62.25-30.15 63.62-32.15 66-33.31 68.38-34.47 71.38-34.47L71.38-34.47Q74.48-34.47 77.02-33.3 79.56-32.13 81.29-30.4L81.29-30.4 79.07-27.71Q77.53-29.17 75.58-30.04 73.63-30.91 71.38-30.91L71.38-30.91Q68.5-30.91 66.73-29.52 64.96-28.13 64.96-25.81L64.96-25.81Q64.96-24.15 65.82-23.07 66.67-22 67.96-21.3 69.26-20.61 70.58-20.04L70.58-20.04 75.41-17.97Q77.39-17.14 78.97-15.99 80.56-14.84 81.49-13.15 82.42-11.45 82.42-8.91L82.42-8.91Q82.42-6.25 81.03-4.09 79.63-1.93 77.08-0.66 74.53 0.61 70.99 0.61ZM114.05 7.86L111.61 9.06Q108.41 3.88 106.62-1.82 104.82-7.52 104.82-14.31L104.82-14.31Q104.82-21.12 106.62-26.83 108.41-32.54 111.61-37.72L111.61-37.72 114.05-36.52Q111.07-31.62 109.6-25.92 108.12-20.21 108.12-14.31L108.12-14.31Q108.12-8.4 109.6-2.72 111.07 2.95 114.05 7.86L114.05 7.86ZM133.83 0.61L133.83 0.61Q129.38 0.61 125.94-1.48 122.5-3.56 120.56-7.48 118.62-11.4 118.62-16.89L118.62-16.89Q118.62-22.34 120.62-26.27 122.62-30.2 126.11-32.34 129.6-34.47 134.09-34.47L134.09-34.47Q137.61-34.47 139.95-33.15 142.3-31.84 143.76-30.3L143.76-30.3 141.56-27.76Q140.3-29.13 138.51-30.02 136.73-30.91 134.19-30.91L134.19-30.91Q130.72-30.91 128.16-29.21 125.6-27.51 124.19-24.4 122.79-21.29 122.79-16.99L122.79-16.99Q122.79-10.5 125.74-6.71 128.7-2.93 134.19-2.93L134.19-2.93Q136.05-2.93 137.73-3.45 139.42-3.98 140.47-4.98L140.47-4.98 140.47-14.06 133.17-14.06 133.17-17.41 144.18-17.41 144.18-3.3Q142.57-1.59 139.88-0.49 137.19 0.61 133.83 0.61ZM161.95 0.61L161.95 0.61Q158.65 0.61 155.95-0.95 153.26-2.51 151.66-5.44 150.06-8.37 150.06-12.45L150.06-12.45Q150.06-16.53 151.66-19.48 153.26-22.44 155.82-24.02 158.38-25.61 161.24-25.61L161.24-25.61Q165.95-25.61 168.54-22.46 171.13-19.31 171.13-13.89L171.13-13.89Q171.13-12.52 170.98-11.57L170.98-11.57 153.96-11.57Q154.16-7.5 156.45-5 158.75-2.51 162.41-2.51L162.41-2.51Q164.29-2.51 165.85-3.02 167.42-3.52 168.76-4.42L168.76-4.42 170.15-1.95Q168.52-0.83 166.54-0.11 164.56 0.61 161.95 0.61ZM153.92-14.43L153.92-14.43 167.64-14.43Q167.64-18.36 165.98-20.41 164.32-22.46 161.29-22.46L161.29-22.46Q158.58-22.46 156.44-20.36 154.31-18.26 153.92-14.43ZM181.31 0L177.35 0 177.35-24.98 180.65-24.98 181.01-21.39 181.11-21.39Q182.92-23.17 184.94-24.39 186.97-25.61 189.56-25.61L189.56-25.61Q193.46-25.61 195.3-23.13 197.13-20.65 197.13-15.87L197.13-15.87 197.13 0 193.22 0 193.22-15.36Q193.22-18.92 192.07-20.56 190.92-22.19 188.31-22.19L188.31-22.19Q186.38-22.19 184.82-21.17 183.26-20.14 181.31-18.19L181.31-18.19 181.31 0ZM215.41 0.61L215.41 0.61Q212.11 0.61 209.42-0.95 206.72-2.51 205.12-5.44 203.52-8.37 203.52-12.45L203.52-12.45Q203.52-16.53 205.12-19.48 206.72-22.44 209.28-24.02 211.85-25.61 214.7-25.61L214.7-25.61Q219.41-25.61 222-22.46 224.59-19.31 224.59-13.89L224.59-13.89Q224.59-12.52 224.44-11.57L224.44-11.57 207.43-11.57Q207.62-7.5 209.92-5 212.21-2.51 215.87-2.51L215.87-2.51Q217.75-2.51 219.32-3.02 220.88-3.52 222.22-4.42L222.22-4.42 223.61-1.95Q221.98-0.83 220-0.11 218.02 0.61 215.41 0.61ZM207.38-14.43L207.38-14.43 221.1-14.43Q221.1-18.36 219.44-20.41 217.78-22.46 214.75-22.46L214.75-22.46Q212.04-22.46 209.9-20.36 207.77-18.26 207.38-14.43ZM234.77 0L230.81 0 230.81-24.98 234.11-24.98 234.47-20.46 234.57-20.46Q235.89-22.8 237.72-24.21 239.55-25.61 241.68-25.61L241.68-25.61Q243.29-25.61 244.31-25.1L244.31-25.1 243.43-21.73Q242.9-21.9 242.42-21.97 241.95-22.05 241.16-22.05L241.16-22.05Q239.58-22.05 237.82-20.74 236.06-19.43 234.77-16.16L234.77-16.16 234.77 0ZM254.25 0.61L254.25 0.61Q251.12 0.61 249.02-1.21 246.92-3.03 246.92-6.42L246.92-6.42Q246.92-10.52 250.65-12.72 254.37-14.92 262.4-15.82L262.4-15.82Q262.4-17.48 261.95-18.97 261.5-20.46 260.36-21.41 259.23-22.36 257.13-22.36L257.13-22.36Q254.91-22.36 252.97-21.51 251.02-20.65 249.56-19.73L249.56-19.73 248.02-22.36Q249.68-23.51 252.21-24.56 254.74-25.61 257.76-25.61L257.76-25.61Q262.33-25.61 264.34-22.8 266.36-20 266.36-15.41L266.36-15.41 266.36 0 263.06 0 262.74-3.03 262.6-3.03Q260.79-1.54 258.68-0.46 256.57 0.61 254.25 0.61ZM255.32-2.56L255.32-2.56Q257.2-2.56 258.85-3.44 260.5-4.32 262.4-5.96L262.4-5.96 262.4-13.18Q258.08-12.65 255.54-11.77 253-10.89 251.9-9.64 250.81-8.4 250.81-6.74L250.81-6.74Q250.81-4.52 252.12-3.54 253.44-2.56 255.32-2.56ZM282.05 0.61L282.05 0.61Q278.12 0.61 276.58-1.66 275.05-3.93 275.05-7.62L275.05-7.62 275.05-21.73 271.33-21.73 271.33-24.78 275.27-24.98 275.73-33.08 279.03-33.08 279.03-24.98 285.89-24.98 285.89-21.73 279.03-21.73 279.03-7.52Q279.03-5.2 279.88-3.91 280.73-2.61 282.93-2.61L282.93-2.61Q283.59-2.61 284.32-2.75 285.06-2.88 285.81-3.22L285.81-3.22 286.69-0.44Q285.69 0 284.49 0.31 283.3 0.61 282.05 0.61ZM301.58 0.61L301.58 0.61Q298.29 0.61 295.59-0.95 292.89-2.51 291.29-5.44 289.69-8.37 289.69-12.45L289.69-12.45Q289.69-16.53 291.29-19.48 292.89-22.44 295.45-24.02 298.02-25.61 300.87-25.61L300.87-25.61Q305.59-25.61 308.17-22.46 310.76-19.31 310.76-13.89L310.76-13.89Q310.76-12.52 310.61-11.57L310.61-11.57 293.6-11.57Q293.79-7.5 296.09-5 298.38-2.51 302.05-2.51L302.05-2.51Q303.93-2.51 305.49-3.02 307.05-3.52 308.39-4.42L308.39-4.42 309.78-1.95Q308.15-0.83 306.17-0.11 304.19 0.61 301.58 0.61ZM293.55-14.43L293.55-14.43 307.27-14.43Q307.27-18.36 305.61-20.41 303.95-22.46 300.92-22.46L300.92-22.46Q298.21-22.46 296.08-20.36 293.94-18.26 293.55-14.43ZM337.51 0L333.51 0 333.51-33.84 352.82-33.84 352.82-30.44 337.51-30.44 337.51-18.7 350.5-18.7 350.5-15.28 337.51-15.28 337.51 0ZM368.05 0.61L368.05 0.61Q365.03 0.61 362.4-0.93 359.78-2.47 358.18-5.38 356.58-8.3 356.58-12.45L356.58-12.45Q356.58-16.63 358.18-19.57 359.78-22.51 362.4-24.06 365.03-25.61 368.05-25.61L368.05-25.61Q371.13-25.61 373.77-24.06 376.4-22.51 378-19.57 379.6-16.63 379.6-12.45L379.6-12.45Q379.6-8.3 378-5.38 376.4-2.47 373.77-0.93 371.13 0.61 368.05 0.61ZM368.05-2.66L368.05-2.66Q371.4-2.66 373.47-5.36 375.55-8.06 375.55-12.45L375.55-12.45Q375.55-16.87 373.47-19.59 371.4-22.31 368.05-22.31L368.05-22.31Q365.88-22.31 364.2-21.07 362.51-19.82 361.57-17.61 360.63-15.41 360.63-12.45L360.63-12.45Q360.63-8.06 362.71-5.36 364.78-2.66 368.05-2.66ZM390.59 0.61L390.59 0.61Q388.34 0.61 387.33-0.77 386.31-2.15 386.31-4.79L386.31-4.79 386.31-36.74 390.27-36.74 390.27-4.47Q390.27-3.47 390.63-3.06 391-2.66 391.51-2.66L391.51-2.66Q391.71-2.66 391.89-2.67 392.07-2.69 392.39-2.76L392.39-2.76 392.9 0.2Q392.49 0.37 391.9 0.49 391.32 0.61 390.59 0.61ZM407.77 0.61L407.77 0.61Q403.11 0.61 400.29-2.8 397.47-6.2 397.47-12.45L397.47-12.45Q397.47-16.5 398.99-19.46 400.52-22.41 403-24.01 405.48-25.61 408.33-25.61L408.33-25.61Q410.5-25.61 412.13-24.84 413.75-24.07 415.39-22.71L415.39-22.71 415.24-27 415.24-36.74 419.22-36.74 419.22 0 415.92 0 415.61-2.98 415.46-2.98Q413.97-1.51 412.02-0.45 410.06 0.61 407.77 0.61ZM408.65-2.71L408.65-2.71Q410.43-2.71 412.02-3.58 413.6-4.44 415.24-6.23L415.24-6.23 415.24-19.58Q413.58-21.04 412.07-21.68 410.55-22.31 408.97-22.31L408.97-22.31Q406.89-22.31 405.22-21.07 403.55-19.82 402.55-17.6 401.54-15.38 401.54-12.45L401.54-12.45Q401.54-7.89 403.4-5.3 405.26-2.71 408.65-2.71ZM437.8 0.61L437.8 0.61Q434.5 0.61 431.8-0.95 429.11-2.51 427.51-5.44 425.91-8.37 425.91-12.45L425.91-12.45Q425.91-16.53 427.51-19.48 429.11-22.44 431.67-24.02 434.23-25.61 437.09-25.61L437.09-25.61Q441.8-25.61 444.39-22.46 446.98-19.31 446.98-13.89L446.98-13.89Q446.98-12.52 446.83-11.57L446.83-11.57 429.81-11.57Q430.01-7.5 432.3-5 434.6-2.51 438.26-2.51L438.26-2.51Q440.14-2.51 441.7-3.02 443.27-3.52 444.61-4.42L444.61-4.42 446-1.95Q444.36-0.83 442.39-0.11 440.41 0.61 437.8 0.61ZM429.76-14.43L429.76-14.43 443.49-14.43Q443.49-18.36 441.83-20.41 440.16-22.46 437.14-22.46L437.14-22.46Q434.43-22.46 432.29-20.36 430.16-18.26 429.76-14.43ZM457.15 0L453.2 0 453.2-24.98 456.5-24.98 456.86-20.46 456.96-20.46Q458.28-22.8 460.11-24.21 461.94-25.61 464.06-25.61L464.06-25.61Q465.68-25.61 466.7-25.1L466.7-25.1 465.82-21.73Q465.28-21.9 464.81-21.97 464.33-22.05 463.55-22.05L463.55-22.05Q461.96-22.05 460.21-20.74 458.45-19.43 457.15-16.16L457.15-16.16 457.15 0ZM496.68 0.61L496.68 0.61Q493.04 0.61 490.06-0.74 487.08-2.1 484.91-4.42L484.91-4.42 487.18-7.1Q488.99-5.13 491.5-4.03 494.01-2.93 496.72-2.93L496.72-2.93Q500.17-2.93 502.1-4.49 504.02-6.05 504.02-8.59L504.02-8.59Q504.02-10.4 503.27-11.49 502.51-12.57 501.22-13.29 499.92-14.01 498.31-14.72L498.31-14.72 493.43-16.89Q491.87-17.58 490.28-18.65 488.69-19.73 487.63-21.41 486.57-23.1 486.57-25.56L486.57-25.56Q486.57-28.15 487.94-30.15 489.3-32.15 491.68-33.31 494.06-34.47 497.07-34.47L497.07-34.47Q500.17-34.47 502.71-33.3 505.25-32.13 506.98-30.4L506.98-30.4 504.76-27.71Q503.22-29.17 501.27-30.04 499.31-30.91 497.07-30.91L497.07-30.91Q494.19-30.91 492.42-29.52 490.65-28.13 490.65-25.81L490.65-25.81Q490.65-24.15 491.5-23.07 492.35-22 493.65-21.3 494.94-20.61 496.26-20.04L496.26-20.04 501.09-17.97Q503.07-17.14 504.66-15.99 506.25-14.84 507.17-13.15 508.1-11.45 508.1-8.91L508.1-8.91Q508.1-6.25 506.71-4.09 505.32-1.93 502.77-0.66 500.22 0.61 496.68 0.61ZM522.11 0.61L522.11 0.61Q518.18 0.61 516.64-1.66 515.11-3.93 515.11-7.62L515.11-7.62 515.11-21.73 511.4-21.73 511.4-24.78 515.33-24.98 515.79-33.08 519.09-33.08 519.09-24.98 525.95-24.98 525.95-21.73 519.09-21.73 519.09-7.52Q519.09-5.2 519.94-3.91 520.79-2.61 522.99-2.61L522.99-2.61Q523.65-2.61 524.38-2.75 525.12-2.88 525.87-3.22L525.87-3.22 526.75-0.44Q525.75 0 524.55 0.31 523.36 0.61 522.11 0.61ZM535.56 0L531.61 0 531.61-24.98 534.9-24.98 535.27-20.46 535.37-20.46Q536.69-22.8 538.52-24.21 540.35-25.61 542.47-25.61L542.47-25.61Q544.08-25.61 545.11-25.1L545.11-25.1 544.23-21.73Q543.69-21.9 543.22-21.97 542.74-22.05 541.96-22.05L541.96-22.05Q540.37-22.05 538.61-20.74 536.86-19.43 535.56-16.16L535.56-16.16 535.56 0ZM556.58 0.61L556.58 0.61Q552.65 0.61 550.81-1.86 548.96-4.32 548.96-9.11L548.96-9.11 548.96-24.98 552.87-24.98 552.87-9.62Q552.87-6.08 554.03-4.46 555.19-2.83 557.78-2.83L557.78-2.83Q559.73-2.83 561.28-3.85 562.83-4.86 564.69-7.15L564.69-7.15 564.69-24.98 568.59-24.98 568.59 0 565.35 0 565-3.96 564.83-3.96Q563.1-1.9 561.12-0.65 559.14 0.61 556.58 0.61ZM587 0.61L587 0.61Q583.7 0.61 581.07-0.93 578.43-2.47 576.89-5.38 575.35-8.3 575.35-12.45L575.35-12.45Q575.35-16.63 577.01-19.57 578.67-22.51 581.4-24.06 584.12-25.61 587.29-25.61L587.29-25.61Q589.78-25.61 591.54-24.76 593.3-23.9 594.62-22.66L594.62-22.66 592.61-20.19Q591.56-21.17 590.28-21.74 589-22.31 587.46-22.31L587.46-22.31Q585.14-22.31 583.32-21.07 581.5-19.82 580.46-17.61 579.41-15.41 579.41-12.45L579.41-12.45Q579.41-8.06 581.6-5.36 583.8-2.66 587.36-2.66L587.36-2.66Q589.15-2.66 590.66-3.34 592.17-4.03 593.32-5.08L593.32-5.08 595.08-2.56Q591.64 0.61 587 0.61ZM608.36 0.61L608.36 0.61Q604.43 0.61 602.89-1.66 601.35-3.93 601.35-7.62L601.35-7.62 601.35-21.73 597.64-21.73 597.64-24.78 601.57-24.98 602.03-33.08 605.33-33.08 605.33-24.98 612.19-24.98 612.19-21.73 605.33-21.73 605.33-7.52Q605.33-5.2 606.18-3.91 607.04-2.61 609.24-2.61L609.24-2.61Q609.9-2.61 610.63-2.75 611.36-2.88 612.12-3.22L612.12-3.22 613-0.44Q612 0 610.8 0.31 609.6 0.61 608.36 0.61ZM625.15 0.61L625.15 0.61Q621.22 0.61 619.38-1.86 617.54-4.32 617.54-9.11L617.54-9.11 617.54-24.98 621.44-24.98 621.44-9.62Q621.44-6.08 622.6-4.46 623.76-2.83 626.35-2.83L626.35-2.83Q628.3-2.83 629.85-3.85 631.4-4.86 633.26-7.15L633.26-7.15 633.26-24.98 637.16-24.98 637.16 0 633.92 0 633.58-3.96 633.4-3.96Q631.67-1.9 629.69-0.65 627.72 0.61 625.15 0.61ZM649.73 0L645.78 0 645.78-24.98 649.08-24.98 649.44-20.46 649.54-20.46Q650.86-22.8 652.69-24.21 654.52-25.61 656.64-25.61L656.64-25.61Q658.26-25.61 659.28-25.1L659.28-25.1 658.4-21.73Q657.86-21.9 657.39-21.97 656.91-22.05 656.13-22.05L656.13-22.05Q654.54-22.05 652.79-20.74 651.03-19.43 649.73-16.16L649.73-16.16 649.73 0ZM673.49 0.61L673.49 0.61Q670.19 0.61 667.49-0.95 664.8-2.51 663.2-5.44 661.6-8.37 661.6-12.45L661.6-12.45Q661.6-16.53 663.2-19.48 664.8-22.44 667.36-24.02 669.92-25.61 672.78-25.61L672.78-25.61Q677.49-25.61 680.08-22.46 682.67-19.31 682.67-13.89L682.67-13.89Q682.67-12.52 682.52-11.57L682.52-11.57 665.5-11.57Q665.7-7.5 667.99-5 670.29-2.51 673.95-2.51L673.95-2.51Q675.83-2.51 677.39-3.02 678.96-3.52 680.3-4.42L680.3-4.42 681.69-1.95Q680.05-0.83 678.08-0.11 676.1 0.61 673.49 0.61ZM665.45-14.43L665.45-14.43 679.18-14.43Q679.18-18.36 677.52-20.41 675.86-22.46 672.83-22.46L672.83-22.46Q670.12-22.46 667.98-20.36 665.85-18.26 665.45-14.43ZM688.99 9.06L688.99 9.06 686.52 7.86Q689.5 2.95 690.99-2.72 692.48-8.4 692.48-14.31L692.48-14.31Q692.48-20.21 690.99-25.92 689.5-31.62 686.52-36.52L686.52-36.52 688.99-37.72Q692.19-32.54 693.99-26.83 695.8-21.12 695.8-14.31L695.8-14.31Q695.8-7.52 693.99-1.82 692.19 3.88 688.99 9.06Z" opacity="1" transform="matrix(1,0,0,1,0,0)" fill="#ffffff" class="wordmark-text-0" data-fill-palette-color="primary" id="text-0"></path></svg></g></svg></g><g transform="matrix(1,0,0,1,0,32.990017805181374)"><svg viewBox="0 0 395.5199999999999 15.786424826413487" height="15.786424826413487" width="395.5199999999999"><g transform="matrix(1,0,0,1,0,0)"><svg width="395.5199999999999" viewBox="2.69 -31.98 1033.61 41.260000000000005" height="15.786424826413487" data-palette-color="#ffffff"><path d="M32.42-13.18L20.26-13.18 20.26-11.91 24.66-11.91 24.66-4.3Q22.22-1.37 18.12-1.03L18.12-1.03Q17.72-0.98 17.33-0.98L17.33-0.98Q7.62-1.07 7.57-14.65L7.57-14.65Q7.57-26.27 14.6-28.13L14.6-28.13Q15.82-28.42 17.19-28.42L17.19-28.42Q22.22-28.42 24.46-25.63L24.46-25.63Q25.93-23.73 27.1-19.68L27.1-19.68 28.37-19.68 28.13-29.15 23.88-28.27Q20.8-29.79 17.33-29.79L17.33-29.79Q11.47-29.79 7.28-25.93L7.28-25.93Q2.69-21.68 2.69-14.84L2.69-14.84Q2.69-7.03 8.25-2.64L8.25-2.64Q12.3 0.49 17.33 0.49L17.33 0.49Q21 0.49 23.97-1.12L23.97-1.12Q24.37-1.32 24.61-1.51L24.61-1.51 28.76 0 28.76-11.91 32.42-11.91 32.42-13.18ZM46.04-20.02L46.04-20.02Q49.46-20.02 50.58-17.14L50.58-17.14Q50.97-16.21 50.97-15.14L50.97-15.14Q50.97-12.7 48.63-12.16L48.63-12.16Q47.41-11.91 45.16-11.96L45.16-11.96 39.99-12.11Q40.23-17.72 43.65-19.43L43.65-19.43Q44.77-20.02 46.04-20.02ZM54.54-4.69L54.54-4.69 53.32-5.13Q51.61-1.42 47.8-0.93L47.8-0.93Q47.31-0.88 46.87-0.88L46.87-0.88Q41.75-0.88 40.43-6.98L40.43-6.98Q40.04-8.69 39.99-10.74L39.99-10.74 45.85-10.64Q51.8-10.55 53.51-11.77L53.51-11.77Q54.83-12.74 54.83-14.55L54.83-14.55Q54.83-17.87 51.46-19.82L51.46-19.82Q49.07-21.24 45.94-21.24L45.94-21.24Q39.84-21.24 37.2-16.16L37.2-16.16Q35.84-13.53 35.84-10.21L35.84-10.21Q35.84-4.15 40.18-1.22L40.18-1.22Q42.77 0.49 46.09 0.49L46.09 0.49Q51.36 0.49 53.85-3.32L53.85-3.32Q54.25-4 54.54-4.69ZM67.52-1.22L67.52-1.22 65.33-1.22 65.33-11.77Q65.47-16.31 68.55-18.31L68.55-18.31Q69.87-19.14 71.24-19.14L71.24-19.14Q74.21-19.14 75.29-16.36L75.29-16.36Q75.73-15.23 75.73-13.82L75.73-13.82 75.73-4.15Q75.73-1.9 74.46-1.46L74.46-1.46Q73.73-1.22 72.07-1.22L72.07-1.22 72.07 0 83.05 0Q83.05-1.07 82.32-1.17L82.32-1.17Q82.12-1.22 81.83-1.22L81.83-1.22 79.39-1.22 79.39-13.33Q79.39-18.21 76.02-20.31L76.02-20.31Q74.46-21.24 72.65-21.24L72.65-21.24Q69.04-21.24 66.69-18.36L66.69-18.36Q65.82-17.24 65.28-15.87L65.28-15.87 65.08-20.75 58-20.75 58-19.53 61.66-19.53 61.66-4.15Q61.66-1.9 60.4-1.46L60.4-1.46Q59.66-1.22 58-1.22L58-1.22 58 0 68.75 0Q68.75-1.07 68.01-1.17L68.01-1.17Q67.82-1.22 67.52-1.22ZM96.43-20.02L96.43-20.02Q99.85-20.02 100.97-17.14L100.97-17.14Q101.36-16.21 101.36-15.14L101.36-15.14Q101.36-12.7 99.02-12.16L99.02-12.16Q97.8-11.91 95.55-11.96L95.55-11.96 90.37-12.11Q90.62-17.72 94.04-19.43L94.04-19.43Q95.16-20.02 96.43-20.02ZM104.92-4.69L104.92-4.69 103.7-5.13Q101.99-1.42 98.19-0.93L98.19-0.93Q97.7-0.88 97.26-0.88L97.26-0.88Q92.13-0.88 90.81-6.98L90.81-6.98Q90.42-8.69 90.37-10.74L90.37-10.74 96.23-10.64Q102.19-10.55 103.9-11.77L103.9-11.77Q105.22-12.74 105.22-14.55L105.22-14.55Q105.22-17.87 101.85-19.82L101.85-19.82Q99.46-21.24 96.33-21.24L96.33-21.24Q90.23-21.24 87.59-16.16L87.59-16.16Q86.22-13.53 86.22-10.21L86.22-10.21Q86.22-4.15 90.57-1.22L90.57-1.22Q93.16 0.49 96.48 0.49L96.48 0.49Q101.75 0.49 104.24-3.32L104.24-3.32Q104.63-4 104.92-4.69ZM119.33-1.22L119.33-1.22 115.81-1.22 115.81-10.94Q115.81-15.38 118.54-18.07L118.54-18.07Q119.62-19.09 120.35-19.14L120.35-19.14Q121.18-19.14 121.87-17.92L121.87-17.92Q122.65-16.55 123.33-16.36L123.33-16.36Q123.62-16.26 123.92-16.26L123.92-16.26Q125.38-16.26 125.77-17.68L125.77-17.68Q125.87-17.97 125.87-18.26L125.87-18.26Q125.87-20.46 123.62-20.95L123.62-20.95Q123.13-21.04 122.7-21.04L122.7-21.04Q119.77-21.04 117.47-18.55L117.47-18.55Q116.4-17.38 115.76-15.92L115.76-15.92 115.57-20.75 108.49-20.75 108.49-19.53 112.15-19.53 112.15-4.15Q112.15-1.9 110.88-1.46L110.88-1.46Q110.15-1.22 108.49-1.22L108.49-1.22 108.49 0 120.55 0Q120.55-1.07 119.81-1.17L119.81-1.17Q119.62-1.22 119.33-1.22ZM145.2 0.49L145.2 0.49Q148.96 0.49 149.35-4.05L149.35-4.05Q149.4-4.35 149.4-4.59L149.4-4.59 148.13-4.64Q147.79-1.07 146.23-1.03L146.23-1.03Q144.96-1.12 144.91-3.56L144.91-3.56 144.91-13.87Q144.91-20.85 137.93-21.24L137.93-21.24Q137.49-21.24 137.05-21.24L137.05-21.24Q131.58-21.24 129.72-18.7L129.72-18.7Q129.14-17.87 129.14-17.04L129.14-17.04Q129.14-15.53 130.55-15.28L130.55-15.28Q130.8-15.23 131.04-15.23L131.04-15.23Q132.17-15.23 132.7-16.65L132.7-16.65Q133.39-18.46 133.63-18.8L133.63-18.8Q134.56-20.02 136.51-20.02L136.51-20.02Q141.1-19.73 141.25-14.99L141.25-14.99 141.25-11.91Q129.77-11.91 128.11-7.13L128.11-7.13Q127.82-6.2 127.82-5.13L127.82-5.13Q127.82-1.42 131.09-0.05L131.09-0.05Q132.41 0.49 133.87 0.49L133.87 0.49Q137.44 0.49 139.88-1.95L139.88-1.95Q140.76-2.88 141.2-3.91L141.2-3.91Q141.78 0.44 145.2 0.49ZM135.49-1.46L135.49-1.46Q132.51-1.46 131.82-4.44L131.82-4.44Q131.68-5.13 131.68-5.96L131.68-5.96Q131.68-9.23 135.44-10.11L135.44-10.11Q137.44-10.55 141.25-10.6L141.25-10.6 141.25-6.69Q140.51-3.32 137.68-1.95L137.68-1.95Q136.56-1.46 135.49-1.46ZM150.62-20.75L150.62-19.53 154.04-19.53 154.04-5.76Q154.38 0.34 159.65 0.54L159.65 0.54Q164.15 0.54 165.27-4.98L165.27-4.98Q165.27-5.03 165.27-5.08L165.27-5.08 163.95-5.32Q162.73-1.27 160.39-0.93L160.39-0.93Q157.75-1.03 157.7-4.69L157.7-4.69 157.7-19.53 165.27-19.53 165.27-20.75 157.7-20.75 157.7-26.42 154.04-25.39 154.04-20.75 150.62-20.75ZM177.67-20.02L177.67-20.02Q181.09-20.02 182.21-17.14L182.21-17.14Q182.6-16.21 182.6-15.14L182.6-15.14Q182.6-12.7 180.26-12.16L180.26-12.16Q179.04-11.91 176.79-11.96L176.79-11.96 171.61-12.11Q171.86-17.72 175.28-19.43L175.28-19.43Q176.4-20.02 177.67-20.02ZM186.16-4.69L186.16-4.69 184.94-5.13Q183.23-1.42 179.43-0.93L179.43-0.93Q178.94-0.88 178.5-0.88L178.5-0.88Q173.37-0.88 172.05-6.98L172.05-6.98Q171.66-8.69 171.61-10.74L171.61-10.74 177.47-10.64Q183.43-10.55 185.14-11.77L185.14-11.77Q186.46-12.74 186.46-14.55L186.46-14.55Q186.46-17.87 183.09-19.82L183.09-19.82Q180.7-21.24 177.57-21.24L177.57-21.24Q171.47-21.24 168.83-16.16L168.83-16.16Q167.46-13.53 167.46-10.21L167.46-10.21Q167.46-4.15 171.81-1.22L171.81-1.22Q174.4 0.49 177.72 0.49L177.72 0.49Q182.99 0.49 185.48-3.32L185.48-3.32Q185.87-4 186.16-4.69ZM209.69 8.06L206.28 8.06 206.28-2.05Q208.96 0.29 212.48 0.49L212.48 0.49Q216.82 0.49 219.75-2.78L219.75-2.78Q222.58-5.96 222.58-10.84L222.58-10.84Q222.58-16.41 219.51-19.29L219.51-19.29Q217.36-21.24 214.28-21.24L214.28-21.24Q209.55-21.24 207.2-17.48L207.2-17.48Q206.62-16.5 206.23-15.43L206.23-15.43 205.98-20.75 198.95-20.75 198.95-19.53 202.61-19.53 202.61 5.13Q202.61 7.37 201.34 7.81L201.34 7.81Q200.61 8.06 198.95 8.06L198.95 8.06 198.95 9.28 210.92 9.28Q210.92 8.2 210.18 8.11L210.18 8.11Q209.99 8.06 209.69 8.06L209.69 8.06ZM212.72-19.29L212.72-19.29Q216.97-19.29 218.09-13.96L218.09-13.96Q218.43-12.35 218.43-10.35L218.43-10.35Q218.43-3.17 214.58-1.27L214.58-1.27Q213.45-0.73 212.14-0.73L212.14-0.73Q208.38-0.73 206.96-4.69L206.96-4.69Q206.23-6.69 206.23-9.42L206.23-9.42Q206.23-15.77 209.5-18.21L209.5-18.21Q210.96-19.29 212.72-19.29ZM236.94-1.22L236.94-1.22 233.42-1.22 233.42-10.94Q233.42-15.38 236.16-18.07L236.16-18.07Q237.23-19.09 237.96-19.14L237.96-19.14Q238.79-19.14 239.48-17.92L239.48-17.92Q240.26-16.55 240.94-16.36L240.94-16.36Q241.23-16.26 241.53-16.26L241.53-16.26Q242.99-16.26 243.38-17.68L243.38-17.68Q243.48-17.97 243.48-18.26L243.48-18.26Q243.48-20.46 241.23-20.95L241.23-20.95Q240.75-21.04 240.31-21.04L240.31-21.04Q237.38-21.04 235.08-18.55L235.08-18.55Q234.01-17.38 233.37-15.92L233.37-15.92 233.18-20.75 226.1-20.75 226.1-19.53 229.76-19.53 229.76-4.15Q229.76-1.9 228.49-1.46L228.49-1.46Q227.76-1.22 226.1-1.22L226.1-1.22 226.1 0 238.16 0Q238.16-1.07 237.43-1.17L237.43-1.17Q237.23-1.22 236.94-1.22ZM249.83-10.4L249.83-10.4Q249.83-17.97 253.98-19.63L253.98-19.63Q255.05-20.02 256.22-20.02L256.22-20.02Q261.64-20.02 262.52-13.18L262.52-13.18Q262.67-12.01 262.67-10.6L262.67-10.6Q262.67-2.39 258.18-0.98L258.18-0.98Q257.3-0.73 256.37-0.73L256.37-0.73Q251.44-0.73 250.17-6.59L250.17-6.59Q249.83-8.3 249.83-10.4ZM256.37-21.24L256.37-21.24Q251.68-21.24 248.56-18.02L248.56-18.02Q245.68-15.04 245.68-10.6L245.68-10.6Q245.68-4.44 250.17-1.37L250.17-1.37Q252.9 0.49 256.22 0.49L256.22 0.49Q260.91 0.49 263.99-2.83L263.99-2.83Q266.82-5.86 266.82-10.4L266.82-10.4Q266.82-16.55 262.28-19.53L262.28-19.53Q259.59-21.24 256.37-21.24ZM278.44-27.88L278.44-27.88Q278.44-29.59 276.92-30.32L276.92-30.32Q276.34-30.57 275.8-30.57L275.8-30.57Q274.09-30.57 273.36-29L273.36-29Q273.11-28.47 273.11-27.88L273.11-27.88Q273.11-26.07 274.73-25.39L274.73-25.39Q275.26-25.2 275.8-25.2L275.8-25.2Q277.51-25.2 278.19-26.76L278.19-26.76Q278.44-27.29 278.44-27.88ZM277.95-20.75L270.38-20.75 270.38-19.53 274.29-19.53 274.29 3.32Q274.14 8.01 272.28 8.06L272.28 8.06Q271.31 8.06 270.97 6.74L270.97 6.74Q270.53 5.18 270.14 4.83L270.14 4.83Q269.7 4.54 269.16 4.54L269.16 4.54Q267.69 4.54 267.35 5.86L267.35 5.86Q267.3 6.1 267.3 6.3L267.3 6.3Q267.3 8.01 269.4 8.89L269.4 8.89Q270.38 9.28 271.41 9.28L271.41 9.28Q274.77 9.28 276.63 6.25L276.63 6.25Q277.95 4 277.95 0.63L277.95 0.63 277.95-20.75ZM293.91-20.02L293.91-20.02Q297.33-20.02 298.45-17.14L298.45-17.14Q298.84-16.21 298.84-15.14L298.84-15.14Q298.84-12.7 296.5-12.16L296.5-12.16Q295.28-11.91 293.03-11.96L293.03-11.96 287.86-12.11Q288.1-17.72 291.52-19.43L291.52-19.43Q292.64-20.02 293.91-20.02ZM302.41-4.69L302.41-4.69 301.19-5.13Q299.48-1.42 295.67-0.93L295.67-0.93Q295.18-0.88 294.74-0.88L294.74-0.88Q289.62-0.88 288.3-6.98L288.3-6.98Q287.91-8.69 287.86-10.74L287.86-10.74 293.72-10.64Q299.67-10.55 301.38-11.77L301.38-11.77Q302.7-12.74 302.7-14.55L302.7-14.55Q302.7-17.87 299.33-19.82L299.33-19.82Q296.94-21.24 293.82-21.24L293.82-21.24Q287.71-21.24 285.07-16.16L285.07-16.16Q283.71-13.53 283.71-10.21L283.71-10.21Q283.71-4.15 288.05-1.22L288.05-1.22Q290.64 0.49 293.96 0.49L293.96 0.49Q299.24 0.49 301.73-3.32L301.73-3.32Q302.12-4 302.41-4.69ZM306.36-10.16L306.36-10.16Q306.36-4.25 310.71-1.32L310.71-1.32Q313.39 0.49 316.81 0.49L316.81 0.49Q321.89 0.49 324.48-3.08L324.48-3.08Q325.06-3.91 325.4-4.74L325.4-4.74 324.13-5.18Q322.33-1.32 318.18-0.93L318.18-0.93Q317.79-0.88 317.4-0.88L317.4-0.88Q313.93-0.88 311.98-4.35L311.98-4.35Q310.51-6.98 310.51-10.6L310.51-10.6Q310.51-16.99 313.88-19.14L313.88-19.14Q315.3-20.02 317.01-20.02L317.01-20.02Q319.64-20.02 320.18-17.97L320.18-17.97Q320.28-17.58 320.42-16.75L320.42-16.75Q320.72-14.79 321.5-14.31L321.5-14.31Q321.99-14.06 322.57-14.01L322.57-14.01Q324.23-13.92 324.67-15.38L324.67-15.38Q324.77-15.72 324.77-16.02L324.77-16.02Q324.77-18.51 321.6-20.12L321.6-20.12Q319.35-21.24 316.71-21.24L316.71-21.24Q310.17-21.24 307.58-15.92L307.58-15.92Q306.36-13.38 306.36-10.16ZM326.62-20.75L326.62-19.53 330.04-19.53 330.04-5.76Q330.38 0.34 335.66 0.54L335.66 0.54Q340.15 0.54 341.27-4.98L341.27-4.98Q341.27-5.03 341.27-5.08L341.27-5.08 339.95-5.32Q338.73-1.27 336.39-0.93L336.39-0.93Q333.75-1.03 333.7-4.69L333.7-4.69 333.7-19.53 341.27-19.53 341.27-20.75 333.7-20.75 333.7-26.42 330.04-25.39 330.04-20.75 326.62-20.75ZM360.31-0.83L360.31-0.83Q363.68-0.83 364.85-2.88L364.85-2.88Q365.29-3.61 365.29-4.49L365.29-4.49Q365.29-6.54 362.31-8.01L362.31-8.01Q361.68-8.35 360.21-8.98L360.21-8.98Q356.21-10.64 354.89-12.11L354.89-12.11Q353.47-13.72 353.47-15.87L353.47-15.87Q353.47-19.24 357.18-20.61L357.18-20.61Q358.89-21.24 360.9-21.24L360.9-21.24Q364.12-21.24 366.46-19.87L366.46-19.87Q366.46-21.29 367.15-21.48L367.15-21.48Q367.44-21.53 367.78-21.53L367.78-21.53 367.78-15.43 366.51-15.43Q366.41-19.92 361.53-19.97L361.53-19.97Q357.87-19.97 356.99-17.82L356.99-17.82Q356.74-17.24 356.74-16.6L356.74-16.6Q356.74-14.5 359.77-13.04L359.77-13.04Q360.46-12.7 361.92-12.11L361.92-12.11Q365.88-10.5 367.19-9.03L367.19-9.03Q368.61-7.47 368.61-5.32L368.61-5.32Q368.61-1.37 364.41-0.05L364.41-0.05Q362.8 0.49 360.9 0.49L360.9 0.49Q357.38 0.44 354.79-1.27L354.79-1.27Q354.79 0 354.16 0.2L354.16 0.2Q353.86 0.24 353.47 0.24L353.47 0.24 353.47-7.18 354.84-7.18Q354.94-0.88 360.31-0.83ZM371.54-20.75L371.54-19.53 374.96-19.53 374.96-5.76Q375.3 0.34 380.57 0.54L380.57 0.54Q385.06 0.54 386.19-4.98L386.19-4.98Q386.19-5.03 386.19-5.08L386.19-5.08 384.87-5.32Q383.65-1.27 381.3-0.93L381.3-0.93Q378.67-1.03 378.62-4.69L378.62-4.69 378.62-19.53 386.19-19.53 386.19-20.75 378.62-20.75 378.62-26.42 374.96-25.39 374.96-20.75 371.54-20.75ZM398.83-1.22L398.83-1.22 395.31-1.22 395.31-10.94Q395.31-15.38 398.05-18.07L398.05-18.07Q399.12-19.09 399.85-19.14L399.85-19.14Q400.68-19.14 401.37-17.92L401.37-17.92Q402.15-16.55 402.83-16.36L402.83-16.36Q403.13-16.26 403.42-16.26L403.42-16.26Q404.88-16.26 405.27-17.68L405.27-17.68Q405.37-17.97 405.37-18.26L405.37-18.26Q405.37-20.46 403.13-20.95L403.13-20.95Q402.64-21.04 402.2-21.04L402.2-21.04Q399.27-21.04 396.97-18.55L396.97-18.55Q395.9-17.38 395.27-15.92L395.27-15.92 395.07-20.75 387.99-20.75 387.99-19.53 391.65-19.53 391.65-4.15Q391.65-1.9 390.38-1.46L390.38-1.46Q389.65-1.22 387.99-1.22L387.99-1.22 387.99 0 400.05 0Q400.05-1.07 399.32-1.17L399.32-1.17Q399.12-1.22 398.83-1.22ZM430.76-1.22L430.76-1.22 428.32-1.22 428.32-20.75 420.65-20.75 420.65-19.53 424.66-19.53 424.66-8.98Q424.66-4.59 421.58-2.54L421.58-2.54Q420.21-1.61 418.75-1.61L418.75-1.61Q414.74-1.61 414.11-5.71L414.11-5.71Q414.01-6.4 414.01-7.18L414.01-7.18 414.01-20.75 406.59-20.75 406.59-19.53 410.35-19.53 410.35-7.91Q410.4 0.44 417.33 0.49L417.33 0.49Q420.99 0.49 423.34-2.49L423.34-2.49Q424.22-3.61 424.75-4.98L424.75-4.98 425.1 0 431.98 0Q431.98-1.07 431.25-1.17L431.25-1.17Q431.05-1.22 430.76-1.22ZM435.25-10.16L435.25-10.16Q435.25-4.25 439.6-1.32L439.6-1.32Q442.28 0.49 445.7 0.49L445.7 0.49Q450.78 0.49 453.37-3.08L453.37-3.08Q453.95-3.91 454.29-4.74L454.29-4.74 453.02-5.18Q451.22-1.32 447.07-0.93L447.07-0.93Q446.68-0.88 446.29-0.88L446.29-0.88Q442.82-0.88 440.87-4.35L440.87-4.35Q439.4-6.98 439.4-10.6L439.4-10.6Q439.4-16.99 442.77-19.14L442.77-19.14Q444.19-20.02 445.89-20.02L445.89-20.02Q448.53-20.02 449.07-17.97L449.07-17.97Q449.17-17.58 449.31-16.75L449.31-16.75Q449.61-14.79 450.39-14.31L450.39-14.31Q450.88-14.06 451.46-14.01L451.46-14.01Q453.12-13.92 453.56-15.38L453.56-15.38Q453.66-15.72 453.66-16.02L453.66-16.02Q453.66-18.51 450.48-20.12L450.48-20.12Q448.24-21.24 445.6-21.24L445.6-21.24Q439.06-21.24 436.47-15.92L436.47-15.92Q435.25-13.38 435.25-10.16ZM455.51-20.75L455.51-19.53 458.93-19.53 458.93-5.76Q459.27 0.34 464.54 0.54L464.54 0.54Q469.04 0.54 470.16-4.98L470.16-4.98Q470.16-5.03 470.16-5.08L470.16-5.08 468.84-5.32Q467.62-1.27 465.28-0.93L465.28-0.93Q462.64-1.03 462.59-4.69L462.59-4.69 462.59-19.53 470.16-19.53 470.16-20.75 462.59-20.75 462.59-26.42 458.93-25.39 458.93-20.75 455.51-20.75ZM495.55-1.22L495.55-1.22 493.11-1.22 493.11-20.75 485.44-20.75 485.44-19.53 489.44-19.53 489.44-8.98Q489.44-4.59 486.37-2.54L486.37-2.54Q485-1.61 483.54-1.61L483.54-1.61Q479.53-1.61 478.9-5.71L478.9-5.71Q478.8-6.4 478.8-7.18L478.8-7.18 478.8-20.75 471.38-20.75 471.38-19.53 475.14-19.53 475.14-7.91Q475.19 0.44 482.12 0.49L482.12 0.49Q485.78 0.49 488.13-2.49L488.13-2.49Q489.01-3.61 489.54-4.98L489.54-4.98 489.88 0 496.77 0Q496.77-1.07 496.04-1.17L496.04-1.17Q495.84-1.22 495.55-1.22ZM510.49-1.22L510.49-1.22 506.97-1.22 506.97-10.94Q506.97-15.38 509.71-18.07L509.71-18.07Q510.78-19.09 511.51-19.14L511.51-19.14Q512.34-19.14 513.03-17.92L513.03-17.92Q513.81-16.55 514.49-16.36L514.49-16.36Q514.78-16.26 515.08-16.26L515.08-16.26Q516.54-16.26 516.93-17.68L516.93-17.68Q517.03-17.97 517.03-18.26L517.03-18.26Q517.03-20.46 514.78-20.95L514.78-20.95Q514.3-21.04 513.86-21.04L513.86-21.04Q510.93-21.04 508.63-18.55L508.63-18.55Q507.56-17.38 506.92-15.92L506.92-15.92 506.73-20.75 499.65-20.75 499.65-19.53 503.31-19.53 503.31-4.15Q503.31-1.9 502.04-1.46L502.04-1.46Q501.31-1.22 499.65-1.22L499.65-1.22 499.65 0 511.71 0Q511.71-1.07 510.98-1.17L510.98-1.17Q510.78-1.22 510.49-1.22ZM529.43-20.02L529.43-20.02Q532.85-20.02 533.97-17.14L533.97-17.14Q534.36-16.21 534.36-15.14L534.36-15.14Q534.36-12.7 532.02-12.16L532.02-12.16Q530.8-11.91 528.55-11.96L528.55-11.96 523.38-12.11Q523.62-17.72 527.04-19.43L527.04-19.43Q528.16-20.02 529.43-20.02ZM537.93-4.69L537.93-4.69 536.71-5.13Q535-1.42 531.19-0.93L531.19-0.93Q530.7-0.88 530.26-0.88L530.26-0.88Q525.13-0.88 523.81-6.98L523.81-6.98Q523.42-8.69 523.38-10.74L523.38-10.74 529.23-10.64Q535.19-10.55 536.9-11.77L536.9-11.77Q538.22-12.74 538.22-14.55L538.22-14.55Q538.22-17.87 534.85-19.82L534.85-19.82Q532.46-21.24 529.33-21.24L529.33-21.24Q523.23-21.24 520.59-16.16L520.59-16.16Q519.22-13.53 519.22-10.21L519.22-10.21Q519.22-4.15 523.57-1.22L523.57-1.22Q526.16 0.49 529.48 0.49L529.48 0.49Q534.75 0.49 537.24-3.32L537.24-3.32Q537.63-4 537.93-4.69ZM555.55-10.4L555.55-10.4Q555.55-17.97 559.7-19.63L559.7-19.63Q560.77-20.02 561.94-20.02L561.94-20.02Q567.36-20.02 568.24-13.18L568.24-13.18Q568.39-12.01 568.39-10.6L568.39-10.6Q568.39-2.39 563.9-0.98L563.9-0.98Q563.02-0.73 562.09-0.73L562.09-0.73Q557.16-0.73 555.89-6.59L555.89-6.59Q555.55-8.3 555.55-10.4ZM562.09-21.24L562.09-21.24Q557.4-21.24 554.28-18.02L554.28-18.02Q551.4-15.04 551.4-10.6L551.4-10.6Q551.4-4.44 555.89-1.37L555.89-1.37Q558.62 0.49 561.94 0.49L561.94 0.49Q566.63 0.49 569.71-2.83L569.71-2.83Q572.54-5.86 572.54-10.4L572.54-10.4Q572.54-16.55 568-19.53L568-19.53Q565.31-21.24 562.09-21.24ZM586.75-1.22L586.75-1.22 583.33-1.22 583.33-19.53 588.94-19.53 588.94-20.75 583.33-20.75 583.33-21.04Q583.33-29.39 585.82-30.52L585.82-30.52Q586.36-30.76 586.99-30.76L586.99-30.76Q588.5-30.76 589.53-28.96L589.53-28.96Q590.41-27.39 590.8-27.1L590.8-27.1Q591.19-26.81 591.68-26.81L591.68-26.81Q593.29-26.81 593.58-28.17L593.58-28.17Q593.63-28.42 593.63-28.61L593.63-28.61Q593.63-30.42 591.19-31.45L591.19-31.45Q589.77-31.98 588.02-31.98L588.02-31.98Q583.43-31.98 581.18-28.17L581.18-28.17Q579.67-25.54 579.67-21.53L579.67-21.53 579.67-20.75 576.25-20.75 576.25-19.53 579.67-19.53 579.67-4.15Q579.67-1.9 578.4-1.46L578.4-1.46Q577.66-1.22 576-1.22L576-1.22 576 0 587.97 0Q587.97-1.07 587.23-1.17L587.23-1.17Q587.04-1.22 586.75-1.22ZM599.83-20.75L599.83-19.53 603.25-19.53 603.25-5.76Q603.59 0.34 608.86 0.54L608.86 0.54Q613.35 0.54 614.48-4.98L614.48-4.98Q614.48-5.03 614.48-5.08L614.48-5.08 613.16-5.32Q611.94-1.27 609.59-0.93L609.59-0.93Q606.96-1.03 606.91-4.69L606.91-4.69 606.91-19.53 614.48-19.53 614.48-20.75 606.91-20.75 606.91-26.42 603.25-25.39 603.25-20.75 599.83-20.75ZM626.05-1.22L626.05-1.22 623.6-1.22 623.6-11.77Q623.6-16.21 626.68-18.21L626.68-18.21Q627.95-19.04 629.32-19.04L629.32-19.04Q632.3-19.04 633.47-16.26L633.47-16.26Q634-14.94 634-13.33L634-13.33 634-4.15Q634-1.9 632.93-1.46L632.93-1.46Q632.25-1.22 630.59-1.22L630.59-1.22 630.59 0 641.33 0Q641.33-1.07 640.6-1.17L640.6-1.17Q640.4-1.22 640.11-1.22L640.11-1.22 637.67-1.22 637.67-13.33Q637.67-18.65 634.15-20.56L634.15-20.56Q632.78-21.24 631.22-21.24L631.22-21.24Q627.61-21.24 625.17-18.6L625.17-18.6Q624.14-17.48 623.6-16.06L623.6-16.06 623.6-31.74 616.28-31.74 616.28-30.52 619.94-30.52 619.94-4.15Q619.94-1.9 618.67-1.46L618.67-1.46Q617.94-1.22 616.28-1.22L616.28-1.22 616.28 0 627.27 0Q627.27-1.07 626.53-1.17L626.53-1.17Q626.34-1.22 626.05-1.22ZM654.75-20.02L654.75-20.02Q658.17-20.02 659.29-17.14L659.29-17.14Q659.69-16.21 659.69-15.14L659.69-15.14Q659.69-12.7 657.34-12.16L657.34-12.16Q656.12-11.91 653.88-11.96L653.88-11.96 648.7-12.11Q648.94-17.72 652.36-19.43L652.36-19.43Q653.48-20.02 654.75-20.02ZM663.25-4.69L663.25-4.69 662.03-5.13Q660.32-1.42 656.51-0.93L656.51-0.93Q656.02-0.88 655.58-0.88L655.58-0.88Q650.46-0.88 649.14-6.98L649.14-6.98Q648.75-8.69 648.7-10.74L648.7-10.74 654.56-10.64Q660.52-10.55 662.22-11.77L662.22-11.77Q663.54-12.74 663.54-14.55L663.54-14.55Q663.54-17.87 660.17-19.82L660.17-19.82Q657.78-21.24 654.66-21.24L654.66-21.24Q648.55-21.24 645.92-16.16L645.92-16.16Q644.55-13.53 644.55-10.21L644.55-10.21Q644.55-4.15 648.89-1.22L648.89-1.22Q651.48 0.49 654.8 0.49L654.8 0.49Q660.08 0.49 662.57-3.32L662.57-3.32Q662.96-4 663.25-4.69ZM680.97-19.53L684.39-19.53 684.39-20.75 674.91-20.75 674.91-19.53 677.11-19.53 683.07-3.17Q684.05-0.44 685.22 0L685.22 0Q685.8 0.24 686.68 0.24L686.68 0.24 687.32 0.24 694.2-17.82Q694.79-19.34 695.62-19.48L695.62-19.48Q695.86-19.53 696.06-19.53L696.06-19.53Q697.13-19.53 697.23-20.26L697.23-20.26Q697.28-20.51 697.28-20.75L697.28-20.75 689.76-20.75 689.76-19.53 693.42-19.53 687.22-2.88 680.97-19.53ZM706.7-0.83L706.7-0.83Q710.07-0.83 711.24-2.88L711.24-2.88Q711.68-3.61 711.68-4.49L711.68-4.49Q711.68-6.54 708.7-8.01L708.7-8.01Q708.07-8.35 706.6-8.98L706.6-8.98Q702.6-10.64 701.28-12.11L701.28-12.11Q699.86-13.72 699.86-15.87L699.86-15.87Q699.86-19.24 703.57-20.61L703.57-20.61Q705.28-21.24 707.29-21.24L707.29-21.24Q710.51-21.24 712.85-19.87L712.85-19.87Q712.85-21.29 713.54-21.48L713.54-21.48Q713.83-21.53 714.17-21.53L714.17-21.53 714.17-15.43 712.9-15.43Q712.8-19.92 707.92-19.97L707.92-19.97Q704.26-19.97 703.38-17.82L703.38-17.82Q703.14-17.24 703.14-16.6L703.14-16.6Q703.14-14.5 706.16-13.04L706.16-13.04Q706.85-12.7 708.31-12.11L708.31-12.11Q712.27-10.5 713.58-9.03L713.58-9.03Q715-7.47 715-5.32L715-5.32Q715-1.37 710.8-0.05L710.8-0.05Q709.19 0.49 707.29 0.49L707.29 0.49Q703.77 0.44 701.18-1.27L701.18-1.27Q701.18 0 700.55 0.2L700.55 0.2Q700.25 0.24 699.86 0.24L699.86 0.24 699.86-7.18 701.23-7.18Q701.33-0.88 706.7-0.83ZM718.9-10.16L718.9-10.16Q718.9-4.25 723.25-1.32L723.25-1.32Q725.94 0.49 729.35 0.49L729.35 0.49Q734.43 0.49 737.02-3.08L737.02-3.08Q737.61-3.91 737.95-4.74L737.95-4.74 736.68-5.18Q734.87-1.32 730.72-0.93L730.72-0.93Q730.33-0.88 729.94-0.88L729.94-0.88Q726.47-0.88 724.52-4.35L724.52-4.35Q723.05-6.98 723.05-10.6L723.05-10.6Q723.05-16.99 726.42-19.14L726.42-19.14Q727.84-20.02 729.55-20.02L729.55-20.02Q732.19-20.02 732.72-17.97L732.72-17.97Q732.82-17.58 732.97-16.75L732.97-16.75Q733.26-14.79 734.04-14.31L734.04-14.31Q734.53-14.06 735.12-14.01L735.12-14.01Q736.78-13.92 737.21-15.38L737.21-15.38Q737.31-15.72 737.31-16.02L737.31-16.02Q737.31-18.51 734.14-20.12L734.14-20.12Q731.89-21.24 729.26-21.24L729.26-21.24Q722.71-21.24 720.12-15.92L720.12-15.92Q718.9-13.38 718.9-10.16ZM744.29-10.4L744.29-10.4Q744.29-17.97 748.44-19.63L748.44-19.63Q749.52-20.02 750.69-20.02L750.69-20.02Q756.11-20.02 756.99-13.18L756.99-13.18Q757.13-12.01 757.13-10.6L757.13-10.6Q757.13-2.39 752.64-0.98L752.64-0.98Q751.76-0.73 750.84-0.73L750.84-0.73Q745.9-0.73 744.63-6.59L744.63-6.59Q744.29-8.3 744.29-10.4ZM750.84-21.24L750.84-21.24Q746.15-21.24 743.02-18.02L743.02-18.02Q740.14-15.04 740.14-10.6L740.14-10.6Q740.14-4.44 744.63-1.37L744.63-1.37Q747.37 0.49 750.69 0.49L750.69 0.49Q755.38 0.49 758.45-2.83L758.45-2.83Q761.28-5.86 761.28-10.4L761.28-10.4Q761.28-16.55 756.74-19.53L756.74-19.53Q754.06-21.24 750.84-21.24ZM781.45-5.18L781.84 0 788.82 0Q788.82-1.07 788.09-1.17L788.09-1.17Q787.89-1.22 787.6-1.22L787.6-1.22 785.16-1.22 785.06-31.74 776.76-31.74 776.76-30.52 781.4-30.52 781.4-18.6Q779.01-21.24 774.95-21.24L774.95-21.24Q769.58-21.24 766.85-16.46L766.85-16.46Q765.19-13.53 765.19-9.86L765.19-9.86Q765.19-3.81 769-1.03L769-1.03Q771.15 0.49 773.73 0.49L773.73 0.49Q779.06 0.39 781.45-5.18L781.45-5.18ZM769.34-10.45L769.34-10.45Q769.34-17.33 773.05-19.38L773.05-19.38Q774.22-20.02 775.64-20.02L775.64-20.02Q779.2-20.02 780.72-16.21L780.72-16.21Q781.55-14.16 781.55-11.38L781.55-11.38Q781.55-5.52 778.62-2.88L778.62-2.88Q777.05-1.46 775.05-1.46L775.05-1.46Q771.05-1.46 769.83-6.35L769.83-6.35Q769.34-8.15 769.34-10.45ZM802.15-20.02L802.15-20.02Q805.57-20.02 806.69-17.14L806.69-17.14Q807.08-16.21 807.08-15.14L807.08-15.14Q807.08-12.7 804.74-12.16L804.74-12.16Q803.52-11.91 801.27-11.96L801.27-11.96 796.09-12.11Q796.34-17.72 799.76-19.43L799.76-19.43Q800.88-20.02 802.15-20.02ZM810.64-4.69L810.64-4.69 809.42-5.13Q807.71-1.42 803.91-0.93L803.91-0.93Q803.42-0.88 802.98-0.88L802.98-0.88Q797.85-0.88 796.53-6.98L796.53-6.98Q796.14-8.69 796.09-10.74L796.09-10.74 801.95-10.64Q807.91-10.55 809.62-11.77L809.62-11.77Q810.94-12.74 810.94-14.55L810.94-14.55Q810.94-17.87 807.57-19.82L807.57-19.82Q805.18-21.24 802.05-21.24L802.05-21.24Q795.95-21.24 793.31-16.16L793.31-16.16Q791.94-13.53 791.94-10.21L791.94-10.21Q791.94-4.15 796.29-1.22L796.29-1.22Q798.88 0.49 802.2 0.49L802.2 0.49Q807.47 0.49 809.96-3.32L809.96-3.32Q810.35-4 810.64-4.69ZM828.46-19.53L832.12-19.53 832.12-20.75 822.46-20.75 822.46-19.53 824.65-19.53 830.76-3.17Q831.78-0.39 832.86 0.05L832.86 0.05Q833.39 0.24 834.17 0.24L834.17 0.24 835.15 0.24 839.4-12.55 842.67-3.17Q843.6-0.44 844.58 0.05L844.58 0.05Q845.06 0.24 845.89 0.24L845.89 0.24 846.67 0.24 852.58-17.77Q853.07-19.29 853.75-19.48L853.75-19.48Q854-19.53 854.29-19.53L854.29-19.53Q855.37-19.53 855.51-20.21L855.51-20.21Q855.56-20.46 855.56-20.75L855.56-20.75 848.33-20.75 848.33-19.53 851.75-19.53 846.33-2.69 840.62-19.53 844.04-19.53 844.04-20.75 836.52-20.75 838.72-14.55 834.66-2.54 828.46-19.53ZM861.66-10.4L861.66-10.4Q861.66-17.97 865.81-19.63L865.81-19.63Q866.89-20.02 868.06-20.02L868.06-20.02Q873.48-20.02 874.36-13.18L874.36-13.18Q874.5-12.01 874.5-10.6L874.5-10.6Q874.5-2.39 870.01-0.98L870.01-0.98Q869.13-0.73 868.21-0.73L868.21-0.73Q863.27-0.73 862-6.59L862-6.59Q861.66-8.3 861.66-10.4ZM868.21-21.24L868.21-21.24Q863.52-21.24 860.39-18.02L860.39-18.02Q857.51-15.04 857.51-10.6L857.51-10.6Q857.51-4.44 862-1.37L862-1.37Q864.74 0.49 868.06 0.49L868.06 0.49Q872.75 0.49 875.82-2.83L875.82-2.83Q878.65-5.86 878.65-10.4L878.65-10.4Q878.65-16.55 874.11-19.53L874.11-19.53Q871.43-21.24 868.21-21.24ZM893.01-1.22L893.01-1.22 889.49-1.22 889.49-10.94Q889.49-15.38 892.23-18.07L892.23-18.07Q893.3-19.09 894.03-19.14L894.03-19.14Q894.86-19.14 895.55-17.92L895.55-17.92Q896.33-16.55 897.01-16.36L897.01-16.36Q897.3-16.26 897.6-16.26L897.6-16.26Q899.06-16.26 899.45-17.68L899.45-17.68Q899.55-17.97 899.55-18.26L899.55-18.26Q899.55-20.46 897.3-20.95L897.3-20.95Q896.82-21.04 896.38-21.04L896.38-21.04Q893.45-21.04 891.15-18.55L891.15-18.55Q890.08-17.38 889.44-15.92L889.44-15.92 889.25-20.75 882.17-20.75 882.17-19.53 885.83-19.53 885.83-4.15Q885.83-1.9 884.56-1.46L884.56-1.46Q883.83-1.22 882.17-1.22L882.17-1.22 882.17 0 894.23 0Q894.23-1.07 893.5-1.17L893.5-1.17Q893.3-1.22 893.01-1.22ZM910.83-1.22L910.83-1.22 908.63-1.22 908.63-8.45 911.32-10.94 918.2 0 924.69 0Q924.69-1.07 923.96-1.17L923.96-1.17Q923.77-1.22 923.47-1.22L923.47-1.22 921.72-1.22 913.85-13.33 918.44-17.63Q920.15-19.24 921.03-19.43L921.03-19.43Q921.42-19.53 921.91-19.53L921.91-19.53Q922.99-19.53 923.08-20.26L923.08-20.26Q923.13-20.51 923.13-20.75L923.13-20.75 914.83-20.75 914.83-19.53 918.49-19.53 908.63-10.4 908.63-31.74 901.31-31.74 901.31-30.52 904.97-30.52 904.97-4.15Q904.97-1.9 903.7-1.46L903.7-1.46Q902.97-1.22 901.31-1.22L901.31-1.22 901.31 0 912.05 0Q912.05-1.07 911.32-1.17L911.32-1.17Q911.12-1.22 910.83-1.22ZM933.48-0.83L933.48-0.83Q936.85-0.83 938.02-2.88L938.02-2.88Q938.46-3.61 938.46-4.49L938.46-4.49Q938.46-6.54 935.48-8.01L935.48-8.01Q934.85-8.35 933.38-8.98L933.38-8.98Q929.38-10.64 928.06-12.11L928.06-12.11Q926.65-13.72 926.65-15.87L926.65-15.87Q926.65-19.24 930.36-20.61L930.36-20.61Q932.07-21.24 934.07-21.24L934.07-21.24Q937.29-21.24 939.63-19.87L939.63-19.87Q939.63-21.29 940.32-21.48L940.32-21.48Q940.61-21.53 940.95-21.53L940.95-21.53 940.95-15.43 939.68-15.43Q939.58-19.92 934.7-19.97L934.7-19.97Q931.04-19.97 930.16-17.82L930.16-17.82Q929.92-17.24 929.92-16.6L929.92-16.6Q929.92-14.5 932.94-13.04L932.94-13.04Q933.63-12.7 935.09-12.11L935.09-12.11Q939.05-10.5 940.37-9.03L940.37-9.03Q941.78-7.47 941.78-5.32L941.78-5.32Q941.78-1.37 937.58-0.05L937.58-0.05Q935.97 0.49 934.07 0.49L934.07 0.49Q930.55 0.44 927.96-1.27L927.96-1.27Q927.96 0 927.33 0.2L927.33 0.2Q927.04 0.24 926.65 0.24L926.65 0.24 926.65-7.18 928.01-7.18Q928.11-0.88 933.48-0.83ZM955.74 8.06L952.33 8.06 952.33-2.05Q955.01 0.29 958.53 0.49L958.53 0.49Q962.87 0.49 965.8-2.78L965.8-2.78Q968.63-5.96 968.63-10.84L968.63-10.84Q968.63-16.41 965.56-19.29L965.56-19.29Q963.41-21.24 960.33-21.24L960.33-21.24Q955.6-21.24 953.25-17.48L953.25-17.48Q952.67-16.5 952.28-15.43L952.28-15.43 952.03-20.75 945-20.75 945-19.53 948.66-19.53 948.66 5.13Q948.66 7.37 947.39 7.81L947.39 7.81Q946.66 8.06 945 8.06L945 8.06 945 9.28 956.97 9.28Q956.97 8.2 956.23 8.11L956.23 8.11Q956.04 8.06 955.74 8.06L955.74 8.06ZM958.77-19.29L958.77-19.29Q963.02-19.29 964.14-13.96L964.14-13.96Q964.48-12.35 964.48-10.35L964.48-10.35Q964.48-3.17 960.63-1.27L960.63-1.27Q959.5-0.73 958.19-0.73L958.19-0.73Q954.43-0.73 953.01-4.69L953.01-4.69Q952.28-6.69 952.28-9.42L952.28-9.42Q952.28-15.77 955.55-18.21L955.55-18.21Q957.01-19.29 958.77-19.29ZM989.68 0.49L989.68 0.49Q993.44 0.49 993.83-4.05L993.83-4.05Q993.88-4.35 993.88-4.59L993.88-4.59 992.61-4.64Q992.27-1.07 990.7-1.03L990.7-1.03Q989.43-1.12 989.38-3.56L989.38-3.56 989.38-13.87Q989.38-20.85 982.4-21.24L982.4-21.24Q981.96-21.24 981.52-21.24L981.52-21.24Q976.05-21.24 974.2-18.7L974.2-18.7Q973.61-17.87 973.61-17.04L973.61-17.04Q973.61-15.53 975.03-15.28L975.03-15.28Q975.27-15.23 975.52-15.23L975.52-15.23Q976.64-15.23 977.18-16.65L977.18-16.65Q977.86-18.46 978.11-18.8L978.11-18.8Q979.03-20.02 980.99-20.02L980.99-20.02Q985.58-19.73 985.72-14.99L985.72-14.99 985.72-11.91Q974.25-11.91 972.59-7.13L972.59-7.13Q972.29-6.2 972.29-5.13L972.29-5.13Q972.29-1.42 975.57-0.05L975.57-0.05Q976.88 0.49 978.35 0.49L978.35 0.49Q981.91 0.49 984.36-1.95L984.36-1.95Q985.23-2.88 985.67-3.91L985.67-3.91Q986.26 0.44 989.68 0.49ZM979.96-1.46L979.96-1.46Q976.98-1.46 976.3-4.44L976.3-4.44Q976.15-5.13 976.15-5.96L976.15-5.96Q976.15-9.23 979.91-10.11L979.91-10.11Q981.91-10.55 985.72-10.6L985.72-10.6 985.72-6.69Q984.99-3.32 982.16-1.95L982.16-1.95Q981.03-1.46 979.96-1.46ZM996.07-10.16L996.07-10.16Q996.07-4.25 1000.42-1.32L1000.42-1.32Q1003.1 0.49 1006.52 0.49L1006.52 0.49Q1011.6 0.49 1014.19-3.08L1014.19-3.08Q1014.77-3.91 1015.11-4.74L1015.11-4.74 1013.84-5.18Q1012.04-1.32 1007.89-0.93L1007.89-0.93Q1007.5-0.88 1007.11-0.88L1007.11-0.88Q1003.64-0.88 1001.69-4.35L1001.69-4.35Q1000.22-6.98 1000.22-10.6L1000.22-10.6Q1000.22-16.99 1003.59-19.14L1003.59-19.14Q1005.01-20.02 1006.72-20.02L1006.72-20.02Q1009.35-20.02 1009.89-17.97L1009.89-17.97Q1009.99-17.58 1010.13-16.75L1010.13-16.75Q1010.43-14.79 1011.21-14.31L1011.21-14.31Q1011.7-14.06 1012.28-14.01L1012.28-14.01Q1013.94-13.92 1014.38-15.38L1014.38-15.38Q1014.48-15.72 1014.48-16.02L1014.48-16.02Q1014.48-18.51 1011.31-20.12L1011.31-20.12Q1009.06-21.24 1006.42-21.24L1006.42-21.24Q999.88-21.24 997.29-15.92L997.29-15.92Q996.07-13.38 996.07-10.16ZM1027.51-20.02L1027.51-20.02Q1030.93-20.02 1032.06-17.14L1032.06-17.14Q1032.45-16.21 1032.45-15.14L1032.45-15.14Q1032.45-12.7 1030.1-12.16L1030.1-12.16Q1028.88-11.91 1026.64-11.96L1026.64-11.96 1021.46-12.11Q1021.7-17.72 1025.12-19.43L1025.12-19.43Q1026.24-20.02 1027.51-20.02ZM1036.01-4.69L1036.01-4.69 1034.79-5.13Q1033.08-1.42 1029.27-0.93L1029.27-0.93Q1028.78-0.88 1028.34-0.88L1028.34-0.88Q1023.22-0.88 1021.9-6.98L1021.9-6.98Q1021.51-8.69 1021.46-10.74L1021.46-10.74 1027.32-10.64Q1033.28-10.55 1034.98-11.77L1034.98-11.77Q1036.3-12.74 1036.3-14.55L1036.3-14.55Q1036.3-17.87 1032.93-19.82L1032.93-19.82Q1030.54-21.24 1027.42-21.24L1027.42-21.24Q1021.31-21.24 1018.68-16.16L1018.68-16.16Q1017.31-13.53 1017.31-10.21L1017.31-10.21Q1017.31-4.15 1021.65-1.22L1021.65-1.22Q1024.24 0.49 1027.56 0.49L1027.56 0.49Q1032.84 0.49 1035.33-3.32L1035.33-3.32Q1035.72-4 1036.01-4.69Z" opacity="1" transform="matrix(1,0,0,1,0,0)" fill="#ffffff" class="slogan-text-1" data-fill-palette-color="secondary" id="text-1"></path></svg></g></svg></g></svg></g></svg></g><g transform="matrix(1,0,0,1,143.09220050370942,0)"><svg viewBox="0 0 109.33559899258105 67.4090437168641" height="67.4090437168641" width="109.33559899258105"><g><svg xmlns="http://www.w3.org/2000/svg" xmlns:xlink="http://www.w3.org/1999/xlink" version="1.1" x="8" y="0" viewBox="5 17.5 90 65" enable-background="new 0 0 100 100" xml:space="preserve" height="67.4090437168641" width="93.33559899258105" class="icon-icon-0" data-fill-palette-color="accent" id="icon-0"><path d="M93.75 65H85V50A2.5 2.5 0 0 0 82.5 47.5H52.5V35H61.25C61.94 35 62.5 34.44 62.5 33.75V18.75C62.5 18.06 61.94 17.5 61.25 17.5H38.75C38.06 17.5 37.5 18.06 37.5 18.75V33.75C37.5 34.44 38.06 35 38.75 35H47.5V47.5H17.5A2.5 2.5 0 0 0 15 50V65H6.25C5.56 65 5 65.56 5 66.25V81.25C5 81.94 5.56 82.5 6.25 82.5H28.75C29.44 82.5 30 81.94 30 81.25V66.25C30 65.56 29.44 65 28.75 65H20V52.5H47.5V65H38.75C38.06 65 37.5 65.56 37.5 66.25V81.25C37.5 81.94 38.06 82.5 38.75 82.5H61.25C61.94 82.5 62.5 81.94 62.5 81.25V66.25C62.5 65.56 61.94 65 61.25 65H52.5V52.5H80V65H71.25C70.56 65 70 65.56 70 66.25V81.25C70 81.94 70.56 82.5 71.25 82.5H93.75C94.44 82.5 95 81.94 95 81.25V66.25C95 65.56 94.44 65 93.75 65M27.5 67.5V80H7.5V67.5zM60 67.5V80H40V67.5zM40 32.5V20H60V32.5zM92.5 80H72.5V67.5H92.5z" fill="#ffffff" data-fill-palette-color="accent"></path><path d="M56.25 22.5H43.75A1.25 1.25 0 0 0 43.75 25H56.25A1.25 1.25 0 0 0 56.25 22.5" fill="#ffffff" data-fill-palette-color="accent"></path><path d="M56.25 27.5H43.75A1.25 1.25 0 0 0 43.75 30H56.25A1.25 1.25 0 0 0 56.25 27.5" fill="#ffffff" data-fill-palette-color="accent"></path><path d="M43.75 72.5H56.25A1.25 1.25 0 0 0 56.25 70H43.75A1.25 1.25 0 0 0 43.75 72.5" fill="#ffffff" data-fill-palette-color="accent"></path><path d="M43.75 77.5H56.25A1.25 1.25 0 0 0 56.25 75H43.75A1.25 1.25 0 0 0 43.75 77.5" fill="#ffffff" data-fill-palette-color="accent"></path><path d="M11.25 72.5H23.75A1.25 1.25 0 0 0 23.75 70H11.25A1.25 1.25 0 0 0 11.25 72.5" fill="#ffffff" data-fill-palette-color="accent"></path><path d="M11.25 77.5H23.75A1.25 1.25 0 0 0 23.75 75H11.25A1.25 1.25 0 0 0 11.25 77.5" fill="#ffffff" data-fill-palette-color="accent"></path><path d="M76.25 72.5H88.75A1.25 1.25 0 0 0 88.75 70H76.25A1.25 1.25 0 0 0 76.25 72.5" fill="#ffffff" data-fill-palette-color="accent"></path><path d="M76.25 77.5H88.75A1.25 1.25 0 0 0 88.75 75H76.25A1.25 1.25 0 0 0 76.25 77.5" fill="#ffffff" data-fill-palette-color="accent"></path></svg></g></svg></g><g><rect width="143.09220050370942" height="2.4068696838783628" y="64.00217403298575" x="252.42779949629048" fill="#ffffff" data-fill-palette-color="accent"></rect><rect width="143.09220050370942" height="2.4068696838783628" y="64.00217403298575" x="0" fill="#ffffff" data-fill-palette-color="accent"></rect><rect width="143.09220050370942" height="2.4068696838783628" y="59.18843466522902" x="252.42779949629048" fill="#ffffff" data-fill-palette-color="accent"></rect><rect width="143.09220050370942" height="2.4068696838783628" y="59.18843466522902" x="0" fill="#ffffff" data-fill-palette-color="accent"></rect></g></svg></g></svg></g><defs></defs></svg><rect width="395.5199999999999" height="122.48619232719814" fill="none" stroke="none" visibility="hidden"></rect></g></svg></g></svg>